<svg width="32" height="32" viewBox="0 0 32 32" fill="none" xmlns="http://www.w3.org/2000/svg">
<g clip-path="url(#clip0_19_5)">
<rect width="32" height="32" fill="#111111"/>
<path d="M8.458 23V9.842H13.696C16.288 9.842 17.872 11.192 17.872 13.388C17.872 14.846 17.224 15.89 15.982 16.412C17.368 16.862 18.07 17.906 18.07 19.436C18.07 21.686 16.504 23 13.786 23H8.458ZM13.498 11.876H10.762V15.458H13.552C14.812 15.458 15.514 14.792 15.514 13.622C15.514 12.488 14.794 11.876 13.498 11.876ZM13.696 17.402H10.762V20.966H13.696C14.992 20.966 15.712 20.336 15.712 19.148C15.712 18.032 14.974 17.402 13.696 17.402ZM21.0709 23.216C20.2789 23.216 19.6129 22.568 19.6129 21.794C19.6129 21.002 20.2789 20.354 21.0709 20.354C21.8629 20.354 22.5289 21.002 22.5289 21.794C22.5289 22.568 21.8629 23.216 21.0709 23.216Z" fill="white"/>
</g>
<defs>
<clipPath id="clip0_19_5">
<rect width="32" height="32" fill="white"/>
</clipPath>
</defs>
</svg>
